<?xml version="1.0" encoding="UTF-8"?>
<svg xmlns="http://www.w3.org/2000/svg" width="228" height="221" viewBox="0 0 228 221" role="img" aria-label="Grok logo precise trace vector">
  <title>Grok logo precise trace vector</title>
  <g fill="#000000" stroke="none">
    <path id="grok-logo-part-1" d="M128 196.121 L127 196.288 L126 196.418 L125 196.5 L124 196.512 L123 196.55 L122 196.588 L121 196.628 L120 196.634 L119 196.634 L118 196.647 L117 196.647 L116 196.647 L115 196.634 L114 196.628 L113 196.599 L112 196.564 L111 196.529 L110 196.5 L109 196.5 L108 196.381 L107 196.232 L106 196.049 L105.838 196 L105 195.792 L104 195.647 L103 195.564 L102 195.5 L101 195.325 L100.082 195 L100 194.959 L99 194.675 L98 194.538 L97 194.438 L96 194.121 L95.743 194 L95 193.716 L94 193.55 L93 193.41 L92.181 193 L92 192.867 L91 192.588 L90 192.438 L89.052 192 L89 191.959 L88 191.588 L87 191.387 L86.294 191 L86 190.792 L85 190.523 L84 190.121 L83.83 190 L83 189.599 L82 189.349 L81.504 189 L81 188.647 L80 188.41 L79.377 188 L79 187.704 L78 187.455 L77.334 187 L77 186.704 L76 186.381 L75.484 186 L75 185.634 L74 185.267 L73.679 185 L73 184.564 L72 184.049 L71.949 184 L71 183.512 L70.296 183 L70 182.704 L69 182.232 L68.747 182 L68 181.529 L67.471 181 L68 180.5 L69 180.296 L69.377 180 L70 179.59 L71 179.353 L71.574 179 L72 178.712 L73 178.412 L73.746 178 L74 177.807 L75 177.45 L75.941 177 L76 176.951 L77 176.471 L78 176.096 L78.096 176 L79 175.5 L80 175.208 L80.233 175 L81 174.536 L82 174.284 L82.337 174 L83 173.562 L84 173.325 L84.5 173 L85 172.675 L86 172.401 L86.648 172 L87 171.733 L88 171.426 L88.844 171 L89 170.879 L90 170.45 L91 170.012 L91.012 170 L92 169.477 L93 169.296 L94 169.488 L95 169.879 L95.192 170 L96 170.366 L97 170.488 L98 170.807 L98.377 171 L99 171.284 L100 171.462 L101 171.59 L101.868 172 L102 172.096 L103 172.325 L104 172.45 L105 172.545 L106 172.733 L106.775 173 L107 173.096 L108 173.296 L109 173.412 L110 173.45 L111 173.5 L112 173.5 L113 173.536 L114 173.651 L115 173.768 L116 173.879 L117 173.917 L118 173.917 L119 173.879 L120 173.807 L121 173.712 L122 173.536 L123 173.5 L124 173.477 L125 173.426 L126 173.353 L127 173.208 L127.838 173 L128 172.951 L129 172.651 L130 172.488 L131 172.412 L132 172.208 L132.523 172 L133 171.807 L134 171.5 L135 171.412 L136 171.096 L136.129 171 L137 170.582 L138 170.412 L138.932 170 L139 169.951 L140 169.488 L141 169.25 L141.346 169 L142 168.613 L143 168.353 L143.531 168 L144 167.675 L145 167.401 L145.69 167 L146 166.768 L147 166.401 L147.491 166 L148 165.59 L149 165.208 L149.208 165 L150 164.462 L150.702 164 L151 163.733 L152 163.25 L152.25 163 L153 162.45 L153.565 162 L154 161.613 L154.879 161 L155 160.879 L156 160.208 L156.208 160 L157 159.366 L157.366 159 L158 158.436 L158.436 158 L159 157.471 L159.516 157 L160 156.522 L160.539 156 L161 155.533 L161.516 155 L162 154.507 L162.462 154 L163 153.436 L163.436 153 L164 152.372 L164.372 152 L165 151.208 L165.208 151 L165.917 150 L166 149.917 L166.562 149 L167 148.487 L167.426 148 L168 147.208 L168.208 147 L168.651 146 L169 145.604 L169.45 145 L170 144.133 L170.133 144 L170.5 143 L171 142.325 L171.325 142 L171.651 141 L172 140.524 L172.372 140 L172.675 139 L173 138.551 L173.372 138 L173.619 137 L174 136.391 L174.284 136 L174.5 135 L174.951 134 L175 133.929 L175.401 133 L175.582 132 L176 131.129 L176.096 131 L176.412 130 L176.5 129 L176.879 128 L177 127.743 L177.284 127 L177.45 126 L177.545 125 L177.768 124 L178 123.336 L178.133 123 L178.325 122 L178.412 121 L178.488 120 L178.5 119 L178.619 118 L178.807 117 L178.879 116 L178.951 115 L179 114.675 L179.096 114 L179.133 113 L179.167 112 L179.133 111 L179.096 110 L179.012 109 L179 108.885 L178.917 108 L178.807 107 L178.712 106 L178.536 105 L178.5 104 L178.45 103 L178.401 102 L178.208 101 L178 100.162 L177.951 100 L177.619 99 L177.477 98 L177.372 97 L177.167 96 L177 95.707 L176.675 95 L176.488 94 L176.325 93 L176 92.332 L175.807 92 L175.484 91 L175.296 90 L175 89.535 L174.675 89 L174.45 88 L174 87.059 L173.951 87 L173.366 86 L173 85.634 L172.325 85 L172 84.675 L171 84.193 L170.695 84 L170 83.647 L169 83.538 L168 83.5 L167 83.512 L166 83.599 L165.071 84 L165 84.049 L164 84.564 L163.45 85 L163 85.387 L162 85.988 L161.988 86 L161 86.647 L160.647 87 L160 87.529 L159.336 88 L159 88.311 L158 88.904 L157.904 89 L157 89.628 L156.628 90 L156 90.523 L155.307 91 L155 91.288 L154 91.833 L153.833 92 L153 92.599 L152.599 93 L152 93.5 L151.193 94 L151 94.193 L150 94.75 L149.75 95 L149 95.574 L148.492 96 L148 96.418 L147.121 97 L147 97.121 L146 97.716 L145.716 98 L145 98.55 L144.435 99 L144 99.387 L143 99.988 L142.988 100 L142 100.675 L141.675 101 L141 101.538 L140.385 102 L140 102.349 L139 102.959 L138.959 103 L138 103.634 L137.634 104 L137 104.523 L136.307 105 L136 105.288 L135 105.867 L134.867 106 L134 106.599 L133.599 107 L133 107.512 L132.241 108 L132 108.232 L131 108.792 L130.792 109 L130 109.588 L129.553 110 L129 110.464 L128.193 111 L128 111.193 L127 111.75 L126.75 112 L126 112.564 L125.473 113 L125 113.41 L124.083 114 L124 114.083 L123 114.704 L122.704 115 L122 115.55 L121.429 116 L121 116.381 L120 116.988 L119.988 117 L119 117.675 L118.675 118 L118 118.529 L117.351 119 L117 119.325 L116 119.904 L115.904 120 L115 120.628 L114.628 121 L114 121.523 L113.307 122 L113 122.288 L112 122.833 L111.833 123 L111 123.599 L110.599 124 L110 124.5 L109.232 125 L109 125.232 L108 125.75 L107.75 126 L107 126.574 L106.513 127 L106 127.438 L105.193 128 L105 128.193 L104 128.716 L103.716 129 L103 129.564 L102.482 130 L102 130.418 L101.083 131 L101 131.083 L100 131.675 L99.675 132 L99 132.538 L98.385 133 L98 133.349 L97 133.988 L96.988 134 L96 134.647 L95.647 135 L95 135.529 L94.376 136 L94 136.349 L93 136.881 L92.904 137 L92 137.628 L91.54 138 L91 138.432 L90.131 139 L90 139.121 L89.866 139 L90 138.874 L90.579 138 L91 137.579 L91.488 137 L92 136.488 L92.55 136 L93 135.55 L93.57 135 L94 134.57 L94.601 134 L95 133.601 L95.579 133 L96 132.579 L96.601 132 L97 131.601 L97.57 131 L98 130.57 L98.601 130 L99 129.601 L99.57 129 L100 128.57 L100.579 128 L101 127.579 L101.57 127 L102 126.566 L102.575 126 L103 125.575 L103.546 125 L104 124.546 L104.575 124 L105 123.575 L105.546 123 L106 122.546 L106.566 122 L107 121.566 L107.529 121 L108 120.522 L108.56 120 L109 119.56 L109.522 119 L110 118.522 L110.56 118 L111 117.56 L111.513 117 L112 116.513 L112.539 116 L113 115.539 L113.513 115 L114 114.507 L114.533 114 L115 113.539 L115.513 113 L116 112.507 L116.516 112 L117 111.516 L117.507 111 L118 110.507 L118.516 110 L119 109.516 L119.507 109 L120 108.507 L120.507 108 L121 107.507 L121.507 107 L122 106.498 L122.498 106 L123 105.507 L123.471 105 L124 104.462 L124.498 104 L125 103.498 L125.462 103 L126 102.462 L126.462 102 L127 101.462 L127.462 101 L128 100.462 L128.462 100 L129 99.462 L129.462 99 L130 98.45 L130.45 98 L131 97.462 L131.462 97 L132 96.45 L132.45 96 L133 95.45 L133.45 95 L134 94.45 L134.45 94 L135 93.45 L135.45 93 L136 92.45 L136.45 92 L137 91.45 L137.45 91 L138 90.436 L138.436 90 L139 89.45 L139.45 89 L140 88.436 L140.436 88 L141 87.45 L141.45 87 L142 86.436 L142.436 86 L143 85.436 L143.436 85 L144 84.436 L144.436 84 L145 83.436 L145.436 83 L146 82.426 L146.426 82 L147 81.426 L147.426 81 L148 80.426 L148.426 80 L149 79.426 L149.426 79 L150 78.412 L150.412 78 L151 77.412 L151.412 77 L152 76.412 L152.412 76 L153 75.412 L153.412 75 L154 74.412 L154.412 74 L155 73.412 L155.412 73 L156 72.401 L156.401 72 L157 71.401 L157.401 71 L158 70.401 L158.401 70 L159 69.401 L159.401 69 L160 68.401 L160.401 68 L161 67.401 L161.401 67 L162 66.401 L162.401 66 L163 65.372 L163.372 65 L164 64.401 L164.401 64 L165 63.372 L165.372 63 L166 62.372 L166.372 62 L167 61.372 L167.372 61 L168 60.372 L168.372 60 L169 59.366 L169.366 59 L170 58.372 L170.372 58 L171 57.366 L171.366 57 L172 56.366 L172.366 56 L173 55.353 L173.353 55 L174 54.366 L174.366 54 L175 53.353 L175.353 53 L176 52.353 L176.353 52 L177 51.353 L177.353 51 L178 50.353 L178.353 50 L179 49.325 L179.325 49 L180 48.353 L180.353 48 L181 47.325 L181.325 47 L182 46.325 L182.325 46 L183 45.325 L183.325 45 L184 44.325 L184.325 44 L185 43.296 L185.296 43 L186 42.325 L186.325 42 L187 41.296 L187.296 41 L188 40.296 L188.296 40 L189 39.284 L189.284 39 L190 38.284 L190.284 38 L191 37.284 L191.284 37 L192 36.284 L192.284 36 L193 35.25 L193.25 35 L194 34.25 L194.25 34 L195 33.25 L195.25 33 L196 32.296 L196.296 32 L197 31.366 L197.366 31 L198 30.372 L198.372 30 L199 29.366 L199.366 29 L200 28.366 L200.366 28 L201 27.366 L201.366 27 L202 26.372 L202.372 26 L203 25.366 L203.366 25 L204 24.366 L204.366 24 L205 23.366 L205.366 23 L206 22.366 L206.366 22 L207 21.366 L207.366 21 L208 20.366 L208.366 20 L209 19.366 L209.366 19 L210 18.366 L210.366 18 L211 17.366 L211.366 17 L212 16.366 L212.366 16 L213 15.366 L213.366 15 L214 14.366 L214.366 14 L215 13.366 L215.366 13 L216 12.366 L216.366 12 L217 11.366 L217.366 11 L218 10.353 L218.353 10 L219 9.366 L219.366 9 L220 8.353 L220.353 8 L221 7.353 L221.353 7 L222 6.325 L222.325 6 L223 5.325 L223.325 5 L224 4.296 L224.754 4 L225 3.743 L225.121 4 L225 4.121 L224.5 5 L224 5.55 L223.55 6 L223 6.75 L222.75 7 L222.193 8 L222 8.201 L221.512 9 L221 9.628 L220.628 10 L220 10.959 L219.959 11 L219.381 12 L219 12.429 L218.55 13 L218 13.75 L217.75 14 L217.232 15 L217 15.241 L216.512 16 L216 16.628 L215.628 17 L215 17.988 L214.988 18 L214.418 19 L214 19.517 L213.599 20 L213 20.959 L212.959 21 L212.418 22 L212 22.517 L211.599 23 L211 23.988 L210.988 24 L210.464 25 L210 25.614 L209.647 26 L209.193 27 L209 27.212 L208.529 28 L208 28.792 L207.792 29 L207.438 30 L207 30.575 L206.634 31 L206.267 32 L206 32.33 L205.574 33 L205.121 34 L205 34.143 L204.55 35 L204.083 36 L204 36.095 L203.538 37 L203.083 38 L203 38.105 L202.564 39 L202.267 40 L202 40.381 L201.628 41 L201.438 42 L201 42.796 L200.833 43 L200.538 44 L200.288 45 L200 45.505 L199.716 46 L199.516 47 L199.288 48 L199 48.606 L198.792 49 L198.574 50 L198.5 51 L198.193 52 L198 52.418 L197.75 53 L197.599 54 L197.512 55 L197.41 56 L197.193 57 L197 57.847 L196.959 58 L196.75 59 L196.675 60 L196.588 61 L196.564 62 L196.538 63 L196.523 64 L196.516 65 L196.512 66 L196.5 67 L196.512 68 L196.512 69 L196.523 70 L196.538 71 L196.55 72 L196.564 73 L196.599 74 L196.675 75 L196.75 76 L196.867 77 L197 77.527 L197.121 78 L197.288 79 L197.5 80 L197.512 81 L197.599 82 L197.704 83 L197.904 84 L198 84.225 L198.267 85 L198.5 86 L198.538 87 L198.647 88 L198.833 89 L199 89.398 L199.232 90 L199.5 91 L199.564 92 L199.675 93 L199.988 94 L200 94.021 L200.349 95 L200.5 96 L200.55 97 L200.675 98 L200.792 99 L201 99.744 L201.083 100 L201.232 101 L201.418 102 L201.5 103 L201.512 104 L201.564 105 L201.599 106 L201.628 107 L201.647 108 L201.675 109 L201.716 110 L201.75 111 L201.792 112 L201.75 113 L201.716 114 L201.675 115 L201.647 116 L201.628 117 L201.588 118 L201.55 119 L201.5 120 L201.5 121 L201.325 122 L201.193 123 L201 123.847 L200.959 124 L200.716 125 L200.599 126 L200.529 127 L200.464 128 L200.193 129 L200 129.477 L199.792 130 L199.599 131 L199.5 132 L199.288 133 L199 133.669 L198.833 134 L198.588 135 L198.5 136 L198.083 137 L198 137.135 L197.634 138 L197.5 139 L197.083 140 L197 140.132 L196.628 141 L196.464 142 L196 142.812 L195.833 143 L195.538 144 L195.193 145 L195 145.263 L194.599 146 L194.349 147 L194 147.527 L193.675 148 L193.41 149 L193 149.59 L192.675 150 L192.418 151 L192 151.598 L191.675 152 L191.288 153 L191 153.353 L190.574 154 L190.083 155 L190 155.088 L189.516 156 L189 156.704 L188.704 157 L188.288 158 L188 158.33 L187.55 159 L187 159.716 L186.716 160 L186.193 161 L186 161.201 L185.512 162 L185 162.588 L184.588 163 L184 163.75 L183.75 164 L183.083 165 L183 165.083 L182.325 166 L182 166.336 L181.45 167 L181 167.488 L180.55 168 L180 168.599 L179.599 169 L179 169.628 L178.628 170 L178 170.675 L177.675 171 L177 171.716 L176.716 172 L176 172.716 L175.716 173 L175 173.647 L174.647 174 L174 174.628 L173.628 175 L173 175.564 L172.564 176 L172 176.523 L171.403 177 L171 177.381 L170.121 178 L170 178.121 L169 178.792 L168.792 179 L168 179.599 L167.564 180 L167 180.476 L166.201 181 L166 181.193 L165 181.704 L164.704 182 L164 182.529 L163.253 183 L163 183.232 L162 183.704 L161.704 184 L161 184.512 L160 184.988 L159.988 185 L159 185.55 L158.269 186 L158 186.232 L157 186.628 L156.51 187 L156 187.381 L155 187.647 L154.496 188 L154 188.349 L153 188.647 L152.453 189 L152 189.311 L151 189.588 L150.114 190 L150 190.083 L149 190.523 L148 190.75 L147.649 191 L147 191.381 L146 191.588 L145 191.988 L144.987 192 L144 192.464 L143 192.599 L142 192.904 L141.881 193 L141 193.438 L140 193.564 L139 193.792 L138.535 194 L138 194.232 L137 194.5 L136 194.574 L135 194.75 L134.133 195 L134 195.049 L133 195.381 L132 195.5 L131 195.564 L130 195.675 L129 195.792 L128.343 196 Z"/>
    <path id="grok-logo-part-2" d="M2 217.193 L1.746 217 L2 216.623 L2.424 216 L3 215.021 L3.017 215 L3.689 214 L4 213.679 L4.524 213 L5 212.498 L5.462 212 L6 211.412 L6.412 211 L7 210.353 L7.353 210 L8 209.25 L8.25 209 L9 208.167 L9.167 208 L10 207.012 L10.012 207 L10.879 206 L11 205.879 L11.768 205 L12 204.768 L12.733 204 L13 203.733 L13.675 203 L14 202.675 L14.651 202 L15 201.639 L15.57 201 L16 200.56 L16.513 200 L17 199.498 L17.462 199 L18 198.436 L18.436 198 L19 197.412 L19.412 197 L20 196.401 L20.401 196 L21 195.353 L21.353 195 L22 194.296 L22.296 194 L23 193.208 L23.208 193 L24 192.041 L24.041 192 L24.879 191 L25 190.879 L25.675 190 L26 189.664 L26.533 189 L27 188.48 L27.436 188 L28 187.353 L28.353 187 L29 186.133 L29.133 186 L29.768 185 L30 184.759 L30.524 184 L31 183.447 L31.412 183 L32 182.133 L32.133 182 L32.651 181 L33 180.59 L33.436 180 L34 179.133 L34.133 179 L34.562 178 L35 177.411 L35.353 177 L35.712 176 L36 175.635 L36.412 175 L36.733 174 L37 173.658 L37.412 173 L37.651 172 L38 171.424 L38.284 171 L38.5 170 L38.879 169 L39 168.778 L39.325 168 L39.488 167 L39.689 166 L40 165.19 L40.096 165 L40.325 164 L40.426 163 L40.477 162 L40.5 161 L40.5 160 L40.59 159 L40.651 158 L40.613 157 L40.536 156 L40.5 155 L40.477 154 L40.436 153 L40.325 152 L40.096 151 L40 150.792 L39.712 150 L39.488 149 L39.353 148 L39 147.142 L38.917 147 L38.5 146 L38.353 145 L38 144.305 L37.807 144 L37.471 143 L37.208 142 L37 141.725 L36.59 141 L36.401 140 L36.041 139 L36 138.948 L35.562 138 L35.412 137 L35.096 136 L35 135.853 L34.619 135 L34.471 134 L34.325 133 L34 132.158 L33.917 132 L33.619 131 L33.484 130 L33.372 129 L33.167 128 L33 127.407 L32.879 127 L32.582 126 L32.488 125 L32.436 124 L32.366 123 L32.25 122 L32.133 121 L32 120.473 L31.879 120 L31.768 119 L31.712 118 L31.59 117 L31.5 116 L31.5 115 L31.5 114 L31.5 113 L31.5 112 L31.5 111 L31.5 110 L31.5 109 L31.5 108 L31.5 107 L31.59 106 L31.712 105 L31.768 104 L31.951 103 L32 102.838 L32.208 102 L32.284 101 L32.401 100 L32.45 99 L32.5 98 L32.675 97 L33 96.024 L33.012 96 L33.296 95 L33.426 94 L33.5 93 L33.768 92 L34 91.398 L34.167 91 L34.401 90 L34.5 89 L34.807 88 L35 87.637 L35.296 87 L35.471 86 L35.733 85 L36 84.478 L36.25 84 L36.477 83 L36.768 82 L37 81.644 L37.353 81 L37.5 80 L38 79.096 L38.096 79 L38.462 78 L38.807 77 L39 76.737 L39.401 76 L39.712 75 L40 74.588 L40.366 74 L40.651 73 L41 72.518 L41.366 72 L41.689 71 L42 70.598 L42.401 70 L42.768 69 L43 68.74 L43.462 68 L44 67.167 L44.167 67 L44.582 66 L45 65.483 L45.401 65 L45.951 64 L46 63.951 L46.545 63 L47 62.457 L47.412 62 L48 61.133 L48.133 61 L48.712 60 L49 59.699 L49.484 59 L50 58.412 L50.412 58 L51 57.284 L51.284 57 L52 56.041 L52.041 56 L52.807 55 L53 54.807 L53.733 54 L54 53.733 L54.675 53 L55 52.675 L55.651 52 L56 51.639 L56.601 51 L57 50.613 L57.675 50 L58 49.675 L58.712 49 L59 48.712 L59.807 48 L60 47.807 L61 47.041 L61.041 47 L62 46.284 L62.284 46 L63 45.401 L63.401 45 L64 44.477 L64.654 44 L65 43.675 L66 43.012 L66.012 43 L67 42.372 L67.406 42 L68 41.524 L68.874 41 L69 40.879 L70 40.353 L70.353 40 L71 39.488 L71.949 39 L72 38.951 L73 38.412 L73.566 38 L74 37.651 L75 37.284 L75.284 37 L76 36.5 L77 36.167 L77.167 36 L78 35.488 L79 35.167 L79.167 35 L80 34.5 L81 34.25 L81.317 34 L82 33.582 L83 33.353 L83.547 33 L84 32.689 L85 32.412 L86 32.012 L86.012 32 L87 31.5 L88 31.366 L88.865 31 L89 30.917 L90 30.5 L91 30.366 L92 30.012 L92.015 30 L93 29.562 L94 29.426 L95 29.208 L95.419 29 L96 28.733 L97 28.5 L98 28.412 L99 28.25 L99.708 28 L100 27.879 L101 27.651 L102 27.488 L103 27.412 L104 27.353 L105 27.167 L106 27.012 L106.031 27 L107 26.733 L108 26.562 L109 26.5 L110 26.488 L111 26.462 L112 26.45 L113 26.436 L114 26.426 L115 26.412 L116 26.372 L117 26.372 L118 26.401 L119 26.412 L120 26.426 L121 26.436 L122 26.45 L123 26.471 L124 26.5 L125 26.5 L126 26.651 L127 26.879 L127.565 27 L128 27.096 L129 27.296 L130 27.401 L131 27.484 L132 27.59 L133 27.807 L133.545 28 L134 28.167 L135 28.353 L136 28.477 L137 28.619 L137.853 29 L138 29.096 L139 29.366 L140 29.488 L141 29.712 L141.606 30 L142 30.208 L143 30.45 L144 30.651 L144.672 31 L145 31.208 L146 31.462 L147 31.768 L147.356 32 L148 32.353 L149 32.536 L149.812 33 L150 33.167 L151 33.462 L152 33.807 L152.263 34 L153 34.401 L154 34.651 L154.482 35 L155 35.366 L156 35.651 L156.476 36 L157 36.372 L158 36.712 L158.343 37 L159 37.436 L159.988 38 L160 38.012 L161 38.5 L161.675 39 L162 39.325 L163 39.807 L163.212 40 L164 40.471 L164.716 41 L165 41.284 L165.867 42 L165 42.574 L164.244 43 L164 43.193 L163 43.55 L162 43.988 L161.988 44 L161 44.512 L160 44.867 L159.867 45 L159 45.5 L158 45.75 L157.722 46 L157 46.464 L156 46.675 L155.527 47 L155 47.349 L154 47.628 L153.381 48 L153 48.267 L152 48.564 L151.151 49 L151 49.121 L150 49.538 L149 49.959 L148.959 50 L148 50.512 L147 50.833 L146.833 51 L146 51.5 L145 51.716 L144.716 52 L144 52.5 L143 52.675 L142.5 53 L142 53.325 L141 53.599 L140 53.55 L139 53.267 L138.535 53 L138 52.704 L137 52.516 L136 52.267 L135.521 52 L135 51.716 L134 51.538 L133 51.349 L132.165 51 L132 50.904 L131 50.647 L130 50.538 L129 50.5 L128 50.193 L127.307 50 L127 49.904 L126 49.704 L125 49.628 L124 49.538 L123 49.516 L122 49.5 L121 49.41 L120 49.325 L119 49.325 L118 49.311 L117 49.288 L116 49.311 L115 49.325 L114 49.349 L113 49.418 L112 49.512 L111 49.516 L110 49.564 L109 49.647 L108 49.75 L107 49.988 L106.972 50 L106 50.288 L105 50.5 L104 50.55 L103 50.704 L102 50.988 L101.983 51 L101 51.41 L100 51.564 L99 51.75 L98.548 52 L98 52.288 L97 52.523 L96 52.704 L95.465 53 L95 53.267 L94 53.55 L93 53.904 L92.904 54 L92 54.5 L91 54.716 L90.576 55 L90 55.349 L89 55.647 L88.496 56 L88 56.349 L87 56.647 L86.589 57 L86 57.438 L85 57.833 L84.833 58 L84 58.529 L83.212 59 L83 59.193 L82 59.647 L81.647 60 L81 60.516 L80.244 61 L80 61.232 L79 61.792 L78.792 62 L78 62.599 L77.599 63 L77 63.523 L76.403 64 L76 64.381 L75.232 65 L75 65.232 L74.083 66 L74 66.083 L73 66.959 L72.959 67 L72 67.988 L71.988 68 L71.121 69 L71 69.121 L70.232 70 L70 70.232 L69.381 71 L69 71.396 L68.516 72 L68 72.588 L67.588 73 L67 73.75 L66.75 74 L66.193 75 L66 75.193 L65.455 76 L65 76.585 L64.628 77 L64.083 78 L64 78.086 L63.512 79 L63 79.704 L62.704 80 L62.325 81 L62 81.407 L61.588 82 L61.193 83 L61 83.226 L60.55 84 L60.193 85 L60 85.244 L59.574 86 L59.267 87 L59 87.388 L58.634 88 L58.5 89 L58 89.833 L57.833 90 L57.55 91 L57.311 92 L57 92.575 L56.75 93 L56.529 94 L56.381 95 L56 95.755 L55.833 96 L55.628 97 L55.512 98 L55.311 99 L55 99.81 L54.904 100 L54.675 101 L54.574 102 L54.5 103 L54.455 104 L54.193 105 L54.049 106 L54 106.203 L53.833 107 L53.716 108 L53.675 109 L53.647 110 L53.647 111 L53.634 112 L53.647 113 L53.647 114 L53.675 115 L53.704 116 L53.75 117 L53.904 118 L54 118.54 L54.083 119 L54.232 120 L54.5 121 L54.5 122 L54.588 123 L54.716 124 L54.988 125 L55 125.021 L55.349 126 L55.523 127 L55.647 128 L56 128.914 L56.049 129 L56.5 130 L56.599 131 L56.959 132 L57 132.041 L57.5 133 L57.647 134 L58 134.574 L58.288 135 L58.55 136 L59 136.941 L59.049 137 L59.538 138 L60 138.944 L60.049 139 L60.55 140 L61 140.774 L61.193 141 L61.628 142 L62 142.452 L62.418 143 L62.904 144 L63 144.096 L63.599 145 L64 145.401 L64.5 146 L65 146.879 L65.121 147 L65.75 148 L66 148.25 L66.588 149 L67 149.412 L67.529 150 L68 150.554 L68.418 151 L69 151.689 L69.311 152 L70 152.712 L70.288 153 L71 153.712 L71.298 154 L71.514 155 L71 155.476 L70.361 156 L70 156.349 L69.232 157 L69 157.232 L68.083 158 L68 158.083 L67 158.904 L66.904 159 L66 159.75 L65.75 160 L65 160.647 L64.647 161 L64 161.599 L63.599 162 L63 162.55 L62.55 163 L62 163.523 L61.403 164 L61 164.381 L60.311 165 L60 165.311 L59.193 166 L59 166.193 L58 166.959 L57.959 167 L57 167.792 L56.792 168 L56 168.704 L55.704 169 L55 169.599 L54.599 170 L54 170.574 L53.574 171 L53 171.529 L52.446 172 L52 172.43 L51.361 173 L51 173.349 L50.193 174 L50 174.193 L49.083 175 L49 175.083 L48 175.867 L47.867 176 L47 176.716 L46.716 177 L46 177.647 L45.647 178 L45 178.588 L44.588 179 L44 179.55 L43.514 180 L43 180.487 L42.409 181 L42 181.387 L41.267 182 L41 182.267 L40.193 183 L40 183.193 L39 183.904 L38.904 184 L38 184.792 L37.792 185 L37 185.675 L36.675 186 L36 186.599 L35.599 187 L35 187.564 L34.564 188 L34 188.529 L33.446 189 L33 189.418 L32.325 190 L32 190.325 L31.193 191 L31 191.193 L30.049 192 L30 192.049 L29 192.867 L28.867 193 L28 193.716 L27.716 194 L27 194.647 L26.647 195 L26 195.588 L25.588 196 L25 196.55 L24.514 197 L24 197.48 L23.364 198 L23 198.349 L22.267 199 L22 199.267 L21.121 200 L21 200.121 L20 200.904 L19.904 201 L19 201.792 L18.792 202 L18 202.675 L17.675 203 L17 203.599 L16.599 204 L16 204.564 L15.564 205 L15 205.529 L14.438 206 L14 206.41 L13.325 207 L13 207.325 L12.193 208 L12 208.193 L11 208.988 L10.988 209 L10 209.833 L9.833 210 L9 210.716 L8.716 211 L8 211.634 L7.634 212 L7 212.574 L6.574 213 L6 213.538 L5.538 214 L5 214.516 L4.425 215 L4 215.41 L3.349 216 L3 216.349 L2.193 217 Z"/>
  </g>
</svg>
